{
  "accessors": [
    {
      "bufferView": 2,
      "componentType": 5126,
      "count": 3361,
      "max": [
        8.026302337646484,
        33.06482696533203,
        17.78104019165039
      ],
      "min": [
        -11.82720947265625,
        10.020519256591797,
        4.617763042449951
      ],
      "type": "VEC3"
    },
    {
      "bufferView": 2,
      "byteOffset": 40332,
      "componentType": 5126,
      "count": 3361,
      "max": [
        1.0,
        1.0,
        1.0
      ],
      "min": [
        -1.0,
        -1.0,
        -0.9983507394790649
      ],
      "type": "VEC3"
    },
    {
      "bufferView": 1,
      "componentType": 5126,
      "count": 3361,
      "max": [
        0.99310302734375,
        0.9948989748954773
      ],
      "min": [
        0.007706999778747559,
        0.015030000358819962
      ],
      "type": "VEC2"
    },
    {
      "bufferView": 0,
      "componentType": 5125,
      "count": 8547,
      "type": "SCALAR"
    },
    {
      "bufferView": 2,
      "byteOffset": 80664,
      "componentType": 5126,
      "count": 21307,
      "max": [
        11.627697944641113,
        38.91851043701172,
        16.211793899536133
      ],
      "min": [
        -13.388676643371582,
        -32.75564956665039,
        4.919220924377441
      ],
      "type": "VEC3"
    },
    {
      "bufferView": 2,
      "byteOffset": 336348,
      "componentType": 5126,
      "count": 21307,
      "max": [
        0.9999744892120361,
        0.9999997615814209,
        1.0
      ],
      "min": [
        -0.999987781047821,
        -0.9999673366546631,
        -0.9992006421089172
      ],
      "type": "VEC3"
    },
    {
      "bufferView": 1,
      "byteOffset": 26888,
      "componentType": 5126,
      "count": 21307,
      "max": [
        0.9991430044174194,
        0.9983969926834106
      ],
      "min": [
        0.0037320000119507313,
        0.0039029999170452356
      ],
      "type": "VEC2"
    },
    {
      "bufferView": 0,
      "byteOffset": 34188,
      "componentType": 5125,
      "count": 61059,
      "type": "SCALAR"
    },
    {
      "bufferView": 2,
      "byteOffset": 592032,
      "componentType": 5126,
      "count": 419,
      "max": [
        10.777961730957031,
        41.601505279541016,
        12.682765007019043
      ],
      "min": [
        -11.254828453063965,
        -33.31732940673828,
        4.7810540199279785
      ],
      "type": "VEC3"
    },
    {
      "bufferView": 2,
      "byteOffset": 597060,
      "componentType": 5126,
      "count": 419,
      "max": [
        0.9892827868461609,
        0.9063103199005127,
        1.0
      ],
      "min": [
        -0.9443353414535522,
        -0.9948002099990845,
        -0.757774829864502
      ],
      "type": "VEC3"
    },
    {
      "bufferView": 1,
      "byteOffset": 197344,
      "componentType": 5126,
      "count": 419,
      "max": [
        0.9934669733047485,
        0.9952549934387207
      ],
      "min": [
        0.004666999913752079,
        0.00709300022572279
      ],
      "type": "VEC2"
    },
    {
      "bufferView": 0,
      "byteOffset": 278424,
      "componentType": 5125,
      "count": 1911,
      "type": "SCALAR"
    },
    {
      "bufferView": 2,
      "byteOffset": 602088,
      "componentType": 5126,
      "count": 5694,
      "max": [
        7.1258769035339355,
        30.538305282592773,
        11.965765953063965
      ],
      "min": [
        -9.725709915161133,
        -29.182485580444336,
        6.735589981079102
      ],
      "type": "VEC3"
    },
    {
      "bufferView": 2,
      "byteOffset": 670416,
      "componentType": 5126,
      "count": 5694,
      "max": [
        0.9868561029434204,
        0.9982687830924988,
        0.9949166178703308
      ],
      "min": [
        -0.98685622215271,
        -0.9982687830924988,
        -0.9978341460227966
      ],
      "type": "VEC3"
    },
    {
      "bufferView": 1,
      "byteOffset": 200696,
      "componentType": 5126,
      "count": 5694,
      "max": [
        0.9668170213699341,
        1.2192269563674927
      ],
      "min": [
        0.2503640055656433,
        0.5946279764175415
      ],
      "type": "VEC2"
    },
    {
      "bufferView": 0,
      "byteOffset": 286068,
      "componentType": 5125,
      "count": 7722,
      "type": "SCALAR"
    }
  ],
  "asset": {
    "extras": {
      "author": "bocharova (https://sketchfab.com/apsnu)",
      "license": "CC-BY-NC-4.0 (http://creativecommons.org/licenses/by-nc/4.0/)",
      "source": "https://sketchfab.com/3d-models/crypt-location-ea79b3b36fc04ded845ddfe1de08957a",
      "title": "Crypt Location"
    },
    "generator": "Sketchfab-12.68.0",
    "version": "2.0"
  },
  "bufferViews": [
    {
      "buffer": 0,
      "byteLength": 316956,
      "name": "floatBufferViews",
      "target": 34963
    },
    {
      "buffer": 0,
      "byteLength": 246248,
      "byteOffset": 316956,
      "byteStride": 8,
      "name": "floatBufferViews",
      "target": 34962
    },
    {
      "buffer": 0,
      "byteLength": 738744,
      "byteOffset": 563204,
      "byteStride": 12,
      "name": "floatBufferViews",
      "target": 34962
    }
  ],
  "buffers": [
    {
      "byteLength": 1301948,
      "uri": "scene.bin"
    }
  ],
  "images": [
    {
      "uri": "textures/initialShadingGroup_baseColor.png"
    },
    {
      "uri": "textures/initialShadingGroup_emissive.png"
    },
    {
      "uri": "textures/map_3_castle_baseColor.png"
    },
    {
      "uri": "textures/map_3_castle_emissive.png"
    },
    {
      "uri": "textures/map_3_objects1_baseColor.png"
    },
    {
      "uri": "textures/map_3_objects1_emissive.png"
    },
    {
      "uri": "textures/map_3_terrain1_baseColor.png"
    }
  ],
  "materials": [
    {
      "alphaCutoff": 0.15,
      "alphaMode": "MASK",
      "doubleSided": true,
      "emissiveFactor": [
        0.54,
        0.54,
        0.54
      ],
      "emissiveTexture": {
        "index": 1
      },
      "name": "initialShadingGroup",
      "pbrMetallicRoughness": {
        "baseColorTexture": {
          "index": 0
        },
        "metallicFactor": 0.0,
        "roughnessFactor": 0.6
      }
    },
    {
      "doubleSided": true,
      "emissiveFactor": [
        1.0,
        1.0,
        1.0
      ],
      "emissiveTexture": {
        "index": 3
      },
      "name": "map_3_castle",
      "pbrMetallicRoughness": {
        "baseColorTexture": {
          "index": 2
        },
        "metallicFactor": 0.0,
        "roughnessFactor": 0.6
      }
    },
    {
      "alphaCutoff": 0.72,
      "alphaMode": "MASK",
      "doubleSided": true,
      "emissiveFactor": [
        1.0,
        1.0,
        1.0
      ],
      "emissiveTexture": {
        "index": 5
      },
      "name": "map_3_objects1",
      "pbrMetallicRoughness": {
        "baseColorTexture": {
          "index": 4
        },
        "metallicFactor": 0.0,
        "roughnessFactor": 0.6
      }
    },
    {
      "doubleSided": true,
      "name": "map_3_terrain1",
      "pbrMetallicRoughness": {
        "baseColorTexture": {
          "index": 6
        },
        "metallicFactor": 0.0,
        "roughnessFactor": 0.6
      }
    }
  ],
  "meshes": [
    {
      "name": "Object_0",
      "primitives": [
        {
          "attributes": {
            "NORMAL": 1,
            "POSITION": 0,
            "TEXCOORD_0": 2
          },
          "indices": 3,
          "material": 1,
          "mode": 4
        }
      ]
    },
    {
      "name": "Object_1",
      "primitives": [
        {
          "attributes": {
            "NORMAL": 5,
            "POSITION": 4,
            "TEXCOORD_0": 6
          },
          "indices": 7,
          "material": 2,
          "mode": 4
        }
      ]
    },
    {
      "name": "Object_2",
      "primitives": [
        {
          "attributes": {
            "NORMAL": 9,
            "POSITION": 8,
            "TEXCOORD_0": 10
          },
          "indices": 11,
          "material": 3,
          "mode": 4
        }
      ]
    },
    {
      "name": "Object_3",
      "primitives": [
        {
          "attributes": {
            "NORMAL": 13,
            "POSITION": 12,
            "TEXCOORD_0": 14
          },
          "indices": 15,
          "material": 0,
          "mode": 4
        }
      ]
    }
  ],
  "nodes": [
    {
      "children": [
        1
      ],
      "matrix": [
        1.0,
        0.0,
        0.0,
        0.0,
        0.0,
        2.220446049250313e-16,
        -1.0,
        0.0,
        0.0,
        1.0,
        2.220446049250313e-16,
        0.0,
        0.0,
        0.0,
        0.0,
        1.0
      ],
      "name": "Sketchfab_model"
    },
    {
      "children": [
        2,
        3,
        4,
        5
      ],
      "name": "12.obj.cleaner"
    },
    {
      "mesh": 0,
      "name": "Object_2"
    },
    {
      "mesh": 1,
      "name": "Object_3"
    },
    {
      "mesh": 2,
      "name": "Object_4"
    },
    {
      "mesh": 3,
      "name": "Object_5"
    }
  ],
  "samplers": [
    {
      "magFilter": 9729,
      "minFilter": 9987,
      "wrapS": 10497,
      "wrapT": 10497
    }
  ],
  "scene": 0,
  "scenes": [
    {
      "name": "Sketchfab_Scene",
      "nodes": [
        0
      ]
    }
  ],
  "textures": [
    {
      "sampler": 0,
      "source": 0
    },
    {
      "sampler": 0,
      "source": 1
    },
    {
      "sampler": 0,
      "source": 2
    },
    {
      "sampler": 0,
      "source": 3
    },
    {
      "sampler": 0,
      "source": 4
    },
    {
      "sampler": 0,
      "source": 5
    },
    {
      "sampler": 0,
      "source": 6
    }
  ]
}
